<?xml version="1.0" standalone="no"?>
<!DOCTYPE svg PUBLIC "-//W3C//DTD SVG 20010904//EN"
 "http://www.w3.org/TR/2001/REC-SVG-20010904/DTD/svg10.dtd">
<svg version="1.0" xmlns="http://www.w3.org/2000/svg"
 width="894.000000pt" height="894.000000pt" viewBox="0 0 894.000000 894.000000"
 preserveAspectRatio="xMidYMid meet">
<metadata>
Created by potrace 1.11, written by Peter Selinger 2001-2013
</metadata>
<g transform="translate(0.000000,894.000000) scale(0.100000,-0.100000)"
fill="#000000" stroke="none">
<path d="M4170 8674 c-19 -2 -84 -9 -145 -15 -532 -53 -1121 -241 -1599 -510
-150 -85 -422 -270 -566 -385 -170 -136 -496 -460 -626 -624 -458 -575 -751
-1220 -869 -1912 -44 -261 -58 -433 -59 -738 -1 -306 10 -438 60 -710 241
-1314 1072 -2420 2259 -3006 446 -221 877 -347 1405 -411 203 -24 687 -24 890
0 418 51 734 129 1100 274 1141 451 2033 1400 2419 2573 66 200 155 563 186
765 35 219 29 747 -11 1060 -100 779 -398 1478 -898 2105 -131 164 -456 489
-626 624 -138 111 -412 297 -555 378 -377 214 -813 376 -1245 462 -270 54
-412 68 -760 71 -179 2 -341 1 -360 -1z m-1268 -792 c119 -36 197 -81 280
-163 123 -120 178 -258 179 -444 1 -351 -215 -720 -581 -995 -105 -78 -311
-186 -431 -224 -193 -61 -404 -77 -564 -42 -230 51 -403 201 -472 411 -35 108
-38 286 -6 415 75 300 272 569 585 801 174 129 363 210 593 255 101 20 329 12
417 -14z m2783 -1992 c322 -82 564 -315 662 -637 23 -78 26 -105 27 -243 1
-166 -7 -215 -61 -348 -83 -209 -247 -383 -454 -481 -358 -172 -778 -92 -1055
201 -291 309 -330 774 -93 1127 147 221 376 363 644 401 84 12 242 3 330 -20z
m-1538 -1553 c216 -421 592 -699 1054 -778 220 -38 500 -15 701 57 103 37 239
106 338 172 100 66 285 246 359 350 29 39 57 72 62 72 14 0 269 -57 384 -86
331 -83 777 -225 1170 -373 194 -72 210 -80 213 -104 4 -34 -55 -258 -113
-427 -133 -387 -260 -634 -522 -1014 -326 -473 -786 -895 -1295 -1187 -624
-357 -1307 -539 -2029 -539 -1298 0 -2516 621 -3283 1673 -292 402 -520 882
-642 1356 -19 74 -31 138 -27 141 27 24 734 267 1018 350 77 22 184 54 237 71
555 170 1641 341 2218 348 l115 1 42 -83z"/>
<path d="M5377 5699 c-258 -33 -487 -220 -572 -466 -33 -95 -44 -253 -26 -359
36 -206 176 -392 371 -493 112 -59 184 -75 325 -75 101 1 132 5 197 26 120 40
204 92 294 183 66 66 90 100 128 176 187 379 10 826 -385 970 -65 24 -217 52
-254 48 -5 -1 -40 -5 -78 -10z m227 -64 c264 -56 476 -290 505 -559 21 -189
-38 -369 -167 -508 -164 -177 -403 -248 -634 -189 -240 62 -426 260 -473 505
-19 98 -19 144 0 243 35 188 172 367 345 452 139 68 279 87 424 56z"/>
</g>
</svg>
